# xmcd CD database file
#
# Track frame offsets:
#	150
#	17062
#	35506
#	54113
#	73008
#
# Disc length: 1251 seconds
#
# Revision: 0
# Processed by: cddbd v1.5.1PL0 Copyright (c) Steve Scherf et al.
# Submitted via: CDex 1.51
#
DISCID=3804e105
DTITLE=SIAM SHADE - SIAM　SHADE　7
DYEAR=2000
DGENRE=J-pop
TTITLE0=LOVESICK-You　Don’t　Know-
TTITLE1=Bloody　Train
TTITLE2=PASSION
TTITLE3=Don’t　Tell　Lies
TTITLE4=GET　A　LIFE
EXTD=YEAR: 2000
EXTT0=
EXTT1=
EXTT2=
EXTT3=
EXTT4=
PLAYORDER=
